<?xml version="1.0" standalone="no"?>
<!DOCTYPE svg PUBLIC "-//W3C//DTD SVG 1.1//EN" "http://www.w3.org/Graphics/SVG/1.1/DTD/svg11.dtd" >
<svg xmlns="http://www.w3.org/2000/svg">
<metadata>
Created by FontForge 20120731 at Sat Feb 25 02:32:02 2017
 By admin
</metadata>
<defs>
<font id="iconfont" horiz-adv-x="1024" >
  <font-face 
    font-family="iconfont"
    font-weight="500"
    font-stretch="normal"
    units-per-em="1024"
    panose-1="2 0 6 3 0 0 0 0 0 0"
    ascent="896"
    descent="-128"
    x-height="792"
    bbox="-12 -212 1037 908"
    underline-thickness="0"
    underline-position="0"
    unicode-range="U+0078-E989"
  />
<missing-glyph 
 />
    <glyph glyph-name=".notdef" 
 />
    <glyph glyph-name=".notdef" 
 />
    <glyph glyph-name=".null" horiz-adv-x="0" 
 />
    <glyph glyph-name="nonmarkingreturn" horiz-adv-x="341" 
 />
    <glyph glyph-name="x" unicode="x" horiz-adv-x="1001" 
d="M281 543q-27 -1 -53 -1h-83q-18 0 -36.5 -6t-32.5 -18.5t-23 -32t-9 -45.5v-76h912v41q0 16 -0.5 30t-0.5 18q0 13 -5 29t-17 29.5t-31.5 22.5t-49.5 9h-133v-97h-438v97zM955 310v-52q0 -23 0.5 -52t0.5 -58t-10.5 -47.5t-26 -30t-33 -16t-31.5 -4.5q-14 -1 -29.5 -0.5
t-29.5 0.5h-32l-45 128h-439l-44 -128h-29h-34q-20 0 -45 1q-25 0 -41 9.5t-25.5 23t-13.5 29.5t-4 30v167h911zM163 247q-12 0 -21 -8.5t-9 -21.5t9 -21.5t21 -8.5q13 0 22 8.5t9 21.5t-9 21.5t-22 8.5zM316 123q-8 -26 -14 -48q-5 -19 -10.5 -37t-7.5 -25t-3 -15t1 -14.5
t9.5 -10.5t21.5 -4h37h67h81h80h64h36q23 0 34 12t2 38q-5 13 -9.5 30.5t-9.5 34.5q-5 19 -11 39h-368zM336 498v228q0 11 2.5 23t10 21.5t20.5 15.5t34 6h188q31 0 51.5 -14.5t20.5 -52.5v-227h-327z" />
    <glyph glyph-name="tag" unicode="&#xe686;" 
d="M976 245l-25 26v0l-34 36l-420 440l-19 20l-27 -5l-211 -40h-7l-35 -3l-11 -34l-65 -213l-8 -25l16 -20l376 -512l30 -42l42 31l41 30l17 -17l37 35l40 38l63 61l99 74l40 31l-13 17l38 37zM827 190l17 -24l-101 -76v0l-26 -19v0l-125 -93l-45 -33l-376 512l65 213
l227 14l361 -490h-1zM846 190l-1 1v0l-9 12l-360 490l-5 7l-9 -1l-97 -5l95 18l420 -440v-1l4 -4l20 -21zM387 583q-18 13 -41 13q-15 0 -29 -6q-20 -8 -32 -27q-13 -18 -13 -41q0 -15 6 -28q9 -21 27 -33q19 -12 41 -12q15 0 29 5q20 9 32 27q13 19 13 41q0 15 -6 29
q-8 20 -27 32zM400 500q-7 -16 -21 -26q-15 -10 -33 -10q-12 0 -23 4q-15 7 -25 22q-10 14 -10 32q0 12 4 23q7 16 22 26q14 10 32 10q12 0 23 -5q16 -7 26 -21q10 -15 10 -33q0 -12 -5 -22z" />
    <glyph glyph-name="tag1" unicode="&#xe62c;" 
d="M768 -160l-256 221l-256 -221v896h512v-896z" />
    <glyph glyph-name="ysdot" unicode="&#xe6cc;" 
d="M451 300q-1 19 -15 33t-33 14q-20 0 -33.5 -14t-13.5 -33.5t13.5 -33.5t33.5 -14q19 0 33 13.5t15 33.5v1z" />
    <glyph glyph-name="biaoqian" unicode="&#xe658;" 
d="M512.5 -135q-103.5 0 -197.5 40t-162.5 108.5t-109 163t-40.5 198t40.5 197.5t109 162.5t162.5 109t197.5 40.5t198 -40.5t163 -109t108.5 -162.5t40 -197.5t-40 -198t-108.5 -163t-163 -108.5t-198 -40zM512.5 864q-99.5 0 -190 -39t-156 -104.5t-104.5 -156t-39 -190
t39 -190.5t104.5 -156.5t156 -104.5t190 -39t190.5 39t156.5 104.5t104.5 156.5t39 190.5t-39 190t-104.5 156t-156.5 104.5t-190.5 39zM550 52l-352 352v230h230l352 -352l-230 -230v0zM217 412l333 -332l202 202l-332 333h-203v-203zM640 59l-14 14l209 209l-335 336
l14 13l349 -349zM342.5 428q-25.5 0 -43.5 18.5t-18 43.5t18 43t43.5 18t43.5 -18t18 -43t-18 -43.5t-43.5 -18.5zM342 532q-17 0 -29.5 -12.5t-12.5 -29.5t12.5 -29.5t29.5 -12.5t29.5 12.5t12.5 29.5t-12.5 29.5t-29.5 12.5z" />
    <glyph glyph-name="biaoqian1" unicode="&#xe7cb;" 
d="M860 635v0q-8 -8 -8 -19t8 -19q7 -7 18.5 -7t18.5 7l69 69q36 36 36 86.5t-36 86.5t-86.5 36t-86.5 -36l-59 -59h-294q-11 0 -19 -8l-373 -373q-29 -29 -29 -69.5t29 -69.5l339 -339q29 -29 69.5 -29t69.5 29l373 373q8 8 8 19v170q0 11 -8 19t-19 8t-18.5 -8t-7.5 -19
v-159l-366 -365q-13 -14 -31.5 -14t-32.5 14l-338 338q-14 14 -14 32.5t14 31.5l365 366h230l-19 -20q-36 -35 -36 -86t37 -87l1 -2q7 -6 17.5 -6t17.5 7q8 7 8.5 18t-6.5 19l-3 3q-19 20 -19 48.5t20 48.5l132 132q20 20 48.5 20t49 -20.5t20.5 -49t-20 -48.5z" />
    <glyph glyph-name="biaoqian2" unicode="&#xe62a;" 
d="M899 534l-30 -10l54 -161l-466 -466l-349 348l467 467l174 -59l10 30l-192 65l-503 -503l393 -393l502 503zM668 558q-42 0 -71.5 -30t-29.5 -72t29.5 -71.5t71.5 -29.5t71.5 29.5t29.5 71.5q0 33 -19 60l200 200q11 11 0 22t-22 0l-200 -200q-27 20 -60 20zM717.5 406.5
q-20.5 -20.5 -49.5 -20.5t-49.5 20.5t-20.5 49.5t20.5 49.5t49.5 20.5t49.5 -20.5t20.5 -49.5t-20.5 -49.5z" />
    <glyph glyph-name="shoushumingcheng" unicode="&#xe6ab;" 
d="M849 673h-322q-8 0 -13 -1t-10.5 -5t-8 -6t-10.5 -11t-12 -13l-240 -239l387 -387l240 240q2 2 9.5 9t9 9t6 7.5t6 9t3 9t1.5 11.5v321q0 19 -13.5 32.5t-32.5 13.5zM722 365q-28 -28 -67.5 -28t-68 28t-28.5 68t28.5 68t68 28t67.5 -28t28 -68t-28 -68zM156 321
q-30 -29 -30 -70t30 -71l246 -245q29 -29 70.5 -29t70.5 29l43 42l-387 387zM620 467q-14 -14 -14 -34t14 -34t34 -14t34 14t14 34t-14 34t-34 14t-34 -14z" />
    <glyph glyph-name="dot1" unicode="&#xe652;" horiz-adv-x="1408" 
d="M595 339q0 -45 32 -77t77 -32t77 32t32 77v0q0 45 -32 77t-77 32t-77 -32t-32 -77v0z" />
    <glyph glyph-name="jinlingyingcaiwangtubiao38" unicode="&#xe749;" 
d="M883 755q-75 74 -170.5 113.5t-200.5 39.5t-200.5 -39.5t-170.5 -113.5q-75 -76 -114 -174t-39 -197t39 -197t114 -174q75 -74 170.5 -113.5t200.5 -39.5t200.5 39.5t170.5 113.5q100 101 136 236t0 270t-136 236zM852 44q-68 -68 -156 -104.5t-184 -36.5t-184 36.5
t-156 104.5q-69 69 -105 159t-36 181t36 181t105 159q68 68 156 104.5t184 36.5t184 -36.5t156 -104.5q92 -92 125 -216t0 -248t-125 -216v0zM782 654q-43 44 -105 44.5t-106 -43.5l-129 -129q-44 -43 -44 -105t43 -106l7 -7l31 31l-7 7q-31 31 -30.5 75t31.5 74l129 129
q31 31 75 30.5t74 -30.5l7 -8q31 -30 31 -74t-31 -75l-67 -66l31 -31l67 66q43 44 43.5 106t-43.5 105zM576 459l-31 -31l7 -7q31 -31 30.5 -74.5t-31.5 -74.5l-129 -129q-31 -30 -74 -30h-1q-44 0 -74 31l-7 7q-31 31 -31 74.5t31 74.5l79 79l-30 31l-80 -79
q-43 -43 -43.5 -105t43.5 -106l7 -7q43 -44 105 -44h1q61 0 105 43l129 129q44 44 44 105.5t-43 105.5z" />
    <glyph glyph-name="github" unicode="&#xe735;" 
d="M1 287q0 -165 95.5 -297.5t246.5 -184.5q6 -2 10 -2t6.5 1.5t4 3t2 5t0.5 5.5v6.5v5.5v88q-37 -4 -66 0.5t-45 14t-28.5 23.5t-17.5 25.5t-9 23.5t-6 15q-8 14 -26 27t-27 20.5t-2 14.5q50 26 113 -66q34 -51 118 -30q10 40 40 70q-115 20 -171 85t-56 158q0 87 55 150
q-22 66 5 137q30 3 66 -10.5t50 -23t25 -18.5q58 16 129 16q70 0 129 -16q13 10 28.5 19.5t49 21.5t61.5 9q26 -71 6 -134q56 -64 56 -152q0 -92 -56.5 -157t-172.5 -86q44 -42 44 -104v-128v-3l1.5 -9t4.5 -6t11 -3q154 52 251 185t97 300q0 104 -40.5 198.5t-109 162.5
t-163 108.5t-198.5 40.5t-198.5 -40t-163 -108.5t-109 -163t-40.5 -198.5z" />
    <glyph glyph-name="menu" unicode="&#xe642;" 
d="M514.5 875q-100.5 0 -192 -39t-157.5 -105t-105 -157.5t-39 -192t39 -192t105 -157.5t157.5 -105t192 -39t192 39t157.5 105t105 157.5t39 192t-39 192t-105 157.5t-157.5 105t-192 39zM514.5 -42q-114.5 0 -212 57t-154.5 154.5t-57 212t57 212t154.5 154.5t212 57
t212 -57t154.5 -154.5t57 -212t-57 -212t-154.5 -154.5t-212 -57zM514.5 664q-116.5 0 -199.5 -83t-83 -199.5t83 -199.5t199.5 -83t199.5 83t83 199.5t-83 199.5t-199.5 83z" />
    <glyph glyph-name="daima1" unicode="&#xe640;" horiz-adv-x="1025" 
d="M513.5 810q-103.5 0 -198.5 -40.5t-163 -109t-108.5 -163t-40.5 -198.5t40.5 -198.5t108.5 -163t163 -109t198.5 -40.5t198.5 40.5t163 109t108.5 163t40.5 198.5t-40.5 198.5t-108.5 163t-163 109t-198.5 40.5zM513.5 -167q-94.5 0 -181 36.5t-149 99t-99.5 149
t-37 181.5t37 181t99.5 148.5t149 99.5t181 37t181 -37t149 -99.5t99.5 -148.5t37 -181t-37 -181.5t-99.5 -149t-149 -99t-181 -36.5zM172 276l242 -104v45l-192 80l192 78v45l-242 -102v-42zM443 109h36l106 379h-36zM613 420v-45l192 -78l-192 -80v-45l242 104v42z" />
    <glyph glyph-name="antdicon04" unicode="&#xe61e;" 
d="M315.5 35q-13.5 0 -22.5 9l-211 211q-18 18 -18 45t18 45l211 211q9 9 22.5 9t23 -9t9.5 -22.5t-10 -22.5l-210 -211v0l210 -211q10 -9 10 -22.5t-9.5 -22.5t-23 -9zM708.5 35q-13.5 0 -23 9t-9.5 22.5t10 22.5l210 211v0l-210 211q-10 9 -10 22.5t9.5 22.5t23 9t22.5 -9
l211 -211q18 -18 18 -45t-18 -45l-211 -211q-9 -9 -22.5 -9zM405 -148q-5 0 -8 1q-13 4 -20 15t-3 24l214 832q4 13 15.5 19.5t24 3t19.5 -14.5t3 -24l-214 -832q-3 -10 -12 -17t-19 -7z" />
    <glyph glyph-name="xiangmu2" unicode="&#xe606;" 
d="M991 187l4.5 4.5t5.5 13t1.5 23t-13.5 33t-34 42.5l-427 417h-311l99 -99q3 -5 6 -12t3.5 -26.5t-10.5 -34.5l-59 -58l-6 -3t-15 -4.5t-22 -1.5t-26 8t-29 21l-77 78v-287l464 -464q2 -2 6.5 -6t18 -11t26.5 -9t32 4t36 22zM189 536q17 -16 40 -15.5t39 17.5t15.5 40
t-17.5 39l-171 167q-17 16 -40 16t-39 -17t-16 -40t17 -39z" />
    <glyph glyph-name="dot" unicode="&#xe62b;" 
d="M511.5 412q46.5 0 79.5 -33t33 -79.5t-33 -79.5t-79.5 -33t-79.5 33t-33 79.5t33 79.5t79.5 33z" />
    <glyph glyph-name="attach03" unicode="&#xe634;" 
d="M512 896q-139 0 -257 -68.5t-186.5 -186.5t-68.5 -257t68.5 -257t186.5 -186.5t257 -68.5t257 68.5t186.5 186.5t68.5 257t-68.5 257t-186.5 186.5t-257 68.5zM737 219q0 -13 -12 -19q-4 -1 -8 -1q-8 0 -14 6l-191 183l-191 -182q-9 -9 -21.5 -3.5t-12.5 18.5v327
q0 8 6 14t14.5 6t14.5 -6t6 -14v-279l170 163q6 5 14.5 5t14.5 -5l169 -164v280q0 8 6 14t14.5 6t14.5 -6t6 -14v-329z" />
    <glyph glyph-name="menu1" unicode="&#xe89f;" 
d="M638 384q0 -26 18.5 -44.5t44.5 -18.5t44.5 18.5t18.5 44.5t-18.5 44.5t-44.5 18.5t-44.5 -18.5t-18.5 -44.5zM450 384q0 -26 18.5 -44.5t44.5 -18.5t44.5 18.5t18.5 44.5t-18.5 44.5t-44.5 18.5t-44.5 -18.5t-18.5 -44.5zM261 384q0 -26 18.5 -44.5t44.5 -18.5
t44.5 18.5t18.5 44.5t-18.5 44.5t-44.5 18.5t-44.5 -18.5t-18.5 -44.5zM512 -118q-102 0 -195 40t-160 107t-107 160t-40 195t40 195t107 160t160 107t195 40t195 -40t160 -107t107 -160t40 -195t-40 -195t-107 -160t-160 -107t-195 -40zM512 849q-94 0 -180 -37t-148.5 -99
t-99.5 -148.5t-37 -180.5t37 -180t99 -148.5t148.5 -99.5t180.5 -37t180 37t148.5 99.5t99.5 148.5t37 180t-37 180.5t-99.5 148.5t-148.5 99t-180 37v0z" />
    <glyph glyph-name="daima" unicode="&#xe607;" 
d="M1016 362l-207 -207q-10 -10 -23.5 -10t-23 9.5t-9.5 23.5t10 23l184 184l-184 184q-10 9 -10 23t9.5 23.5t23 9.5t23.5 -10l207 -207q10 -9 10 -23t-10 -23zM337 -42q-7 -13 -21 -16.5t-26 3.5t-15.5 21t3.5 26l409 818q7 13 21 16.5t26 -3.5t15.5 -21t-3.5 -26z
M261.5 154.5q-9.5 -9.5 -23 -9.5t-23.5 10l-207 207q-10 9 -10 23t10 23l207 207q10 10 23.5 10t23 -9.5t9.5 -23.5t-10 -23l-184 -184l184 -184q10 -9 10 -23t-9.5 -23.5z" />
    <glyph glyph-name="menu2" unicode="&#xe722;" 
d="M1 374v18l1 7q6 65 7 68q13 84 55 160q64 118 177 189t250 77q74 4 146 -14q153 -39 258 -157q107 -121 125 -283q10 -84 -9 -167q-21 -96 -76 -176q-61 -89 -152 -147q-100 -62 -219 -74q-54 -6 -109 0q-64 7 -123 30q-90 34 -162 99q-73 66 -116 153q-44 89 -51 187
q0 2 -2 30zM591 343h177q6 0 13 1q19 2 29 20.5t1 35.5q-12 23 -40 23h-164h-190q-7 0 -14 -1q-17 -1 -27.5 -16.5t-5.5 -32.5q9 -30 42 -30h179zM591 135h63h119q25 0 36.5 20t-0.5 41q-12 19 -39 19h-183.5h-168.5h-14q-18 -2 -28.5 -17.5t-5.5 -32.5q9 -30 42 -30h179z
M591 552h175q6 0 14 1q20 1 30 19.5t0 35.5q-11 23 -39 23h-357q-8 0 -12 -1q-25 -5 -32 -29t13 -40q11 -9 30 -9h178zM211 591q0 -17 13 -30t30 -13q17 1 30 13.5t12 29.5q0 17 -12.5 30t-29.5 13t-30 -13t-13 -30zM211 175q0 -17 13 -30t30 -13t29.5 13t12.5 30
q1 17 -12 29.5t-30 13.5q-17 0 -30 -13t-13 -30zM211 383q-1 -16 12 -29t30 -13q17 -1 30 11.5t13 30.5q1 16 -11.5 29t-30 13.5t-30.5 -12t-13 -30.5z" />
    <glyph glyph-name="morendaima" unicode="&#xe69a;" 
d="M512.5 896q-103.5 0 -198 -40.5t-162.5 -108.5t-108.5 -162.5t-40.5 -198t40.5 -198t108.5 -162.5t162.5 -108.5t198 -40.5t198 40.5t162.5 108.5t108.5 162.5t40.5 198t-40.5 198t-108.5 162.5t-162.5 108.5t-198 40.5zM512.5 -79q-94.5 0 -180.5 37t-148.5 99.5
t-99.5 148.5t-37 180.5t37 180.5t99.5 148.5t148.5 99.5t180.5 37t180.5 -37t148.5 -99.5t99 -148.5t36.5 -180.5t-36.5 -180.5t-99 -148.5t-148.5 -99.5t-180.5 -37zM171 364l242 -104v45l-191 79l191 79v45l-242 -103v-41zM442 198h36l105 377h-35zM611 508v-45l192 -79
l-192 -79v-45l242 104v41z" />
    <glyph glyph-name="jquery" unicode="&#xe605;" 
d="M846 132q10 5 32 22t37 22q-31 -46 -56 -75.5t-60.5 -59.5t-79.5 -45.5t-100 -19.5q-161 -12 -311 92q-49 34 -54 39q-2 2 -2.5 10t-2.5 10q-4 4 -21.5 20.5t-31 31t-21.5 26.5q-5 7 -11 25t-9 24q-17 36 -28 83t-12 100.5t15 99.5q3 9 9 19t11 16.5t13.5 18t11.5 15.5
q4 5 14 18.5t17 23.5t13 21q-1 -16 -11.5 -66t-7.5 -90q8 -118 77 -213t169 -153q2 -1 8 0t7 0q12 -14 59 -30q69 -25 167 -21.5t159 36.5v0zM846 132zM915 386q-69 -153 -246 -142q-56 4 -110.5 29t-96.5 65t-71 91.5t-32.5 107t18.5 113.5q4 7 9.5 15.5t13.5 18t12 15.5
q1 1 7.5 10.5t9.5 13.5t9.5 10t12.5 10q-28 -63 -21.5 -123.5t39.5 -114t79 -93t96 -60.5q58 -25 146.5 -14t124.5 48v0zM915 386zM614 728q1 -41 20 -79t51.5 -64t71.5 -41.5t84 -13.5t84 22q-19 -49 -71 -69.5t-111.5 -9t-103.5 49.5q-57 48 -64.5 123.5t44.5 135.5
q6 -13 5 -19t-5.5 -17t-4.5 -18v0zM614 728z" />
    <glyph glyph-name="dot01" unicode="&#xe615;" 
d="M512 384zM435 384q0 32 22.5 54.5t54.5 22.5t54.5 -22.5t22.5 -54.5t-22.5 -54.5t-54.5 -22.5t-54.5 22.5t-22.5 54.5z" />
    <glyph glyph-name="xuexiao1" unicode="&#xe699;" 
d="M889 537l-359 274q-7 7 -18 7t-18 -7l-359 -274q-7 -8 -7 -18.5t7 -18.5h754q7 8 7 18.5t-7 18.5zM512 570q-24 0 -41.5 17t-17.5 41t17.5 41t41.5 17t41.5 -17t17.5 -41t-17.5 -41t-41.5 -17zM258 446h53q8 0 14 -6t6 -15v-262q0 -8 -6 -14t-14 -6h-53q-8 0 -14 6t-6 14
v262q0 9 6 15t14 6zM485 446h54q8 0 14 -6t6 -15v-261q0 -9 -6 -15t-14 -6h-54q-8 0 -14 6t-6 15v261q0 9 6 15t14 6zM713 446h53q8 0 14 -6t6 -15v-262q0 -8 -6 -14t-14 -6h-53q-8 0 -14 6t-6 14v262q0 9 6 15t14 6zM122 -7h780q10 0 10 -10v-26q0 -10 -10 -10h-780
q-10 0 -10 10v26q0 10 10 10zM165 97h694q10 0 10 -10v-26q0 -10 -10 -10h-694q-10 0 -10 10v26q0 10 10 10z" />
    <glyph glyph-name="nodejs" unicode="&#xe989;" 
d="M512 817q-18 0 -33 -8l-318 -184q-33 -19 -33 -58v-366q0 -39 33 -58l83 -48q42 -20 73 -20q45 0 70 26t25 74v361q0 9 -10 9h-39q-10 0 -10 -9v-361q0 -24 -20.5 -36t-55.5 3l-87 50q-5 3 -5 9v366q0 6 5 9l317 183q5 3 10 0l317 -183q5 -3 5 -9v-366q0 -6 -5 -9
l-317 -183q-5 -3 -10 0l-80 49q-6 2 -9 0q-28 -16 -48 -22q-14 -4 3 -13l106 -63q15 -9 33 -9t33 9l318 183q33 19 33 58v366q0 39 -33 58l-318 184q-15 8 -33 8zM597 555q-68 0 -106 -27t-38 -75q0 -49 34.5 -70t105.5 -28q50 -4 75.5 -11.5t31 -15t5.5 -19.5
q0 -26 -22.5 -38t-72.5 -12q-60 0 -81.5 14.5t-27.5 48.5q-1 7 -9 7h-41q-9 0 -9 -9q0 -22 7 -41t24.5 -37t52.5 -28.5t84 -10.5q75 0 116.5 28.5t41.5 80.5q0 49 -32.5 69t-111.5 31q-50 6 -72.5 11.5t-29 12t-6.5 18.5q0 45 81 45q49 0 70.5 -12.5t28.5 -45.5q2 -7 9 -7
h42q4 0 6 3q3 3 2 7q-4 57 -42.5 84t-115.5 27z" />
    <glyph glyph-name="pdf4" unicode="&#xe651;" 
d="M409.5 237.5q-20.5 16.5 -56.5 16.5h-108v-226h34v95h74q36 0 56.5 18t20.5 50q0 30 -20.5 46.5zM383 159q-12 -10 -38 -10h-66v79h66q26 0 38 -9t12 -28q0 -22 -12 -32zM552 254h-102v-226h99q49 0 77.5 30.5t28.5 82t-28 82.5t-75 31zM601 76.5q-20 -22.5 -56 -22.5
h-61v174h64q35 0 54 -23t19 -64.5t-20 -64zM512 896q-139 0 -257 -68.5t-186.5 -186.5t-68.5 -257t68.5 -257t186.5 -186.5t257 -68.5t257 68.5t186.5 186.5t68.5 257t-68.5 257t-186.5 186.5t-257 68.5zM512 -87q-96 0 -183 37.5t-150 100.5t-100.5 150t-37.5 183t37.5 183
t100.5 150t150 100.5t183 37.5t183 -37.5t150 -100.5t100.5 -150t37.5 -183t-37.5 -183t-100.5 -150t-150 -100.5t-183 -37.5zM676 28h32v103h115v27h-115v69h132v27h-164v-226zM741 418q8 0 15 2q10 2 15 10q9 13 6 37q-1 6 -8 12v0q-15 15 -65 15q-34 1 -78 -5
q-24 14 -36 25q-43 40 -65 101l2 10q2 10 4.5 25.5t6 48t1.5 45.5q-1 4 -2 9l-2 3q-8 20 -25 20h-8q-24 0 -30 -19q-11 -42 18 -155l-4 -11q-13 -31 -43 -89l-2 -4q-21 -41 -40 -74l-12 -6q-27 -15 -28 -15q-68 -41 -76 -78q-3 -15 8 -21l12 -6q8 -4 16 -4q44 0 115 123
q88 29 176 42q32 -18 68 -29.5t61 -11.5zM705 467q23 0 40 -4q8 -2 12.5 -5.5t4 -6t-1.5 -4.5v0q-5 -3 -17 -3q-21 0 -71 22q18 1 33 1zM315 317q4 13 20.5 33t39.5 39l11 11q-43 -70 -71 -83zM507 760q7 0 11.5 -14.5t4.5 -33.5q0 -29 -12 -51q-8 26 -8 64q0 35 4 35z
M450 444v0q13 24 21 39q21 41 37 81q25 -45 61 -76l10 -8q-73 -14 -129 -36z" />
    <glyph glyph-name="biaoqian3" unicode="&#xe608;" 
d="M733 548q0 37 -26 63.5t-63 26.5h-71q-49 11 -84 -24l-237 -236q-26 -27 -26 -64t26 -63l95 -94q26 -27 63 -27t63 27l237 236q35 35 23 84v71zM596.5 450q-22.5 0 -38 16t-15.5 38t15.5 38t38 16t38.5 -16t16 -38t-16 -38t-38.5 -16zM512 892q-103 0 -197 -40
t-161.5 -108t-108 -162t-40.5 -197t40.5 -196.5t108 -161.5t161.5 -108t197 -40t197 40t161.5 108t108 161.5t40.5 196.5t-40.5 197t-108 162t-161.5 108t-197 40zM512 -82q-94 0 -180.5 37.5t-149.5 100t-100.5 149t-37.5 180.5t37.5 181t100.5 149.5t149.5 100t180.5 37.5
t180.5 -37.5t149.5 -100t100.5 -149.5t37.5 -181t-37.5 -180.5t-100.5 -149t-149.5 -100t-180.5 -37.5z" />
    <glyph glyph-name="jishu" unicode="&#xe609;" 
d="M459 264q-69 0 -117.5 48.5t-48.5 117.5q0 49 22 84q7 12 18 4q12 -7 4 -18q-19 -29 -19 -70q0 -58 41 -99t99 -41q33 0 64 15q5 3 10 1.5t7 -6.5q3 -5 1 -10t-6 -7q-34 -19 -75 -19v0zM459 264zM610 395h-2q-13 1 -11 14t2 20q0 58 -41 99t-99 41q-35 0 -56 -12
q-12 -6 -18 6q-7 11 5 18q17 10 30.5 12t37.5 2q68 0 117 -48.5t49 -117.5q0 -9 -2 -23q-1 -11 -12 -11v0zM610 395zM417 408q-5 0 -9 4l-87 84q-9 10 0 18q10 10 19 0l76 -75l44 49l-73 71q-9 10 0 18q10 10 18 0l82 -80q8 -9 1 -18l-61 -68q-8 -3 -10 -3v0v0zM417 408z
M681 138q-29 0 -48 21l-109 122q-9 10 1 18q10 9 18 -1l109 -122q11 -11 27.5 -11.5t28.5 10t12.5 27t-10.5 28.5l-102 112q-9 10 1 18t18 -1l102 -110q18 -20 17.5 -47t-20.5 -46q-18 -18 -45 -18v0zM681 138zM517 -49q-116 0 -214.5 57t-156 155.5t-57.5 215.5
q0 115 57.5 213.5t156.5 156t214.5 57.5t214.5 -57.5t156 -156t57 -214.5t-57.5 -214.5t-156 -155.5t-214.5 -57v0zM517 780q-108 0 -201 -54t-146.5 -147t-53.5 -201.5t53.5 -201t146.5 -146.5t201.5 -54t201 54t146.5 146.5t54 201t-54 201.5t-146.5 147t-201.5 54v0z
M517 780z" />
    <glyph glyph-name="youjian1" unicode="&#xe776;" 
d="M512 -128q-104 0 -199 40q-92 39 -163 110t-110 163q-40 95 -40 199t40 199q39 92 110 163t163 110q95 40 199 40t199 -40q92 -39 163 -110t110 -163q40 -95 40 -199t-40 -199q-39 -92 -110 -163t-163 -110q-95 -40 -199 -40zM512 863q-97 0 -185.5 -38t-153 -102.5
t-102.5 -153t-38 -185.5t38 -185.5t102.5 -153t153 -102.5t185.5 -38t185.5 38t153 102.5t102.5 153t38 185.5t-38 185.5t-102.5 153t-153 102.5t-185.5 38zM780 564l-1.5 0.5t-2.5 0.5h-511q-1 0 -2.5 -0.5l-1.5 -0.5l260 -221zM798 548l-184 -157l184 -188q1 4 1 5v333
q0 3 -1 7zM243 548q-1 -4 -1 -7v-333q0 -1 1 -5l184 188zM528 318q-3 -3 -7.5 -3t-7.5 3l-68 58l-185 -190q4 -1 5 -1h511q2 0 6 1l-186 190z" />
    <glyph glyph-name="xiangmu1" unicode="&#xe734;" 
d="M512 -127q-104 0 -199 41q-91 38 -162 109t-109 162q-41 95 -41 199t41 199q38 91 109 162t162 109q95 41 199 41t199 -41q91 -38 162 -109t109 -162q41 -95 41 -199t-41 -199q-38 -91 -109 -162t-162 -109q-95 -41 -199 -41v0zM512 850q-95 0 -181 -37t-148.5 -99.5
t-99.5 -148.5t-37 -181t37 -181t99.5 -148.5t148.5 -99.5t181 -37t181 37t148.5 99.5t99.5 148.5t37 181t-37 181t-99.5 148.5t-148.5 99.5t-181 37v0zM512 850zM642 280h-190q-7 0 -7 -7.5t7 -7.5h190q8 0 8 7.5t-8 7.5v0zM642 280zM642 371h-190q-7 0 -7 -7.5t7 -7.5h190
q8 0 8 7.5t-8 7.5v0zM642 371zM642 462h-190q-7 0 -7 -7.5t7 -7.5h190q8 0 8 7.5t-8 7.5v0zM642 462zM412 478h-32q-7 0 -7 -8v-32q0 -7 7 -7h32q8 0 8 7v32q0 8 -8 8v0zM412 478zM412 387h-32q-7 0 -7 -7v-33q0 -7 7 -7h32q8 0 8 7v33q0 7 -8 7v0zM412 387zM412 296h-32
q-7 0 -7 -7v-32q0 -8 7 -8h32q8 0 8 8v32q0 7 -8 7v0zM412 296zM725 572l-79 78q-6 6 -13 6h-317q-8 0 -13 -5.5t-5 -13.5v-510q0 -8 5 -13t13 -5h396q8 0 13.5 5t5.5 13v431q0 8 -6 14v0zM335 146v473h286v-67q0 -5 3.5 -8t8.5 -3h61v-395h-359zM335 146z" />
    <glyph glyph-name="iconfontword" unicode="&#xe665;" 
d="M973 577q-38 90 -107.5 159.5t-158.5 107.5q-93 39 -195 39t-195 -39q-89 -38 -158.5 -107.5t-107.5 -159.5q-39 -92 -39 -194t39 -195q38 -90 107.5 -159t158.5 -107q93 -39 195 -39t195 39q89 38 158.5 107t107.5 159q39 93 39 195t-39 194v0zM512 -68q-92 0 -175 36
t-143.5 96t-96.5 143.5t-36 175t36 175t96.5 144t143.5 96t175 35.5t175 -35.5t143.5 -96t96.5 -144t36 -175t-36 -175t-96.5 -143.5t-143.5 -96t-175 -36v0zM512 -68zM771 570h-34q-17 0 -38 1l-2 -16l27 -8q10 -3 10 -9q0 -5 -5 -17l-14 -28l-85 -167l-19 -37l-4 37
l-30 248l-30 -3l-132 -245l-19 -37l-3 37l-21 168q-1 12 -2 22q-1 9 -1 13q0 10 4 13t10 5l29 9l1 15q-52 -1 -92 -1h-45q-23 0 -47 1l-2 -15l31 -9q7 -2 11 -5t6 -7.5t3 -11.5q1 -6 3 -14l46 -355l35 3l128 237l17 35l4 -35l32 -240l36 3l188 356q2 6 5 10q3 5 7 9.5t9.5 8
t12.5 5.5l33 10l2 15q-15 -1 -32 -1h-33v0z" />
    <glyph glyph-name="yixiangzhuanye" unicode="&#xe78c;" 
d="M692 -38q83 35 146.5 99t98.5 146q37 86 37 179.5t-37 179.5q-35 83 -98.5 146.5t-146.5 98.5q-85 37 -179 37t-180 -37q-82 -35 -146 -98.5t-99 -146.5q-36 -86 -36 -179.5t36 -179.5q35 -82 99 -146t146 -99q86 -36 180 -36t179 36zM91 362h94q9 0 15 6.5t6 15t-6 15
t-15 6.5h-94q5 107 59 197.5t144.5 145.5t196.5 60v-97q0 -8 6.5 -14.5t15 -6.5t15 6.5t6.5 14.5v97q107 -5 197 -60t144.5 -145.5t58.5 -197.5h-94q-8 0 -14.5 -6t-6.5 -15t6.5 -15t14.5 -6h94q-6 -106 -60.5 -195.5t-144 -143.5t-195.5 -59v91q0 9 -6 15t-15 6t-15 -6
t-6 -15v-91q-106 5 -196 59t-144.5 143.5t-60.5 194.5z" />
    <glyph glyph-name="jishunengli" unicode="&#xe673;" horiz-adv-x="1025" 
d="M511 895q-104 0 -198.5 -40.5t-163 -109t-109 -163.5t-40.5 -199t40.5 -198.5t109 -163t163 -109t198.5 -40.5t199 40.5t163.5 109t109 163t40.5 198.5t-40.5 199t-109 163.5t-163.5 109t-199 40.5zM511.5 -82q-96.5 0 -184.5 37t-151.5 100t-101 150.5t-37.5 183
t37.5 183t101 150.5t151.5 100t184.5 37t184.5 -37t151.5 -100t101 -150.5t37.5 -183t-37.5 -183t-101 -150.5t-151.5 -100t-184.5 -37zM725.5 474.5q-13.5 13.5 -12.5 32.5l-15 15q-4 5 -10.5 11.5t-28.5 21.5t-44.5 23.5t-54.5 7t-62 -18.5l5 -6l40 6l-33 -15l6 -8
q41 6 81 -17q35 -20 18 -42l-79 -79v0q-8 -7 -19 -10l-212 -194l66 -67l194 212q3 12 11 21q1 0 3 2l84 84q19 0 31 -12q13 -13 12 -31l25 -25l52 52l-24 24q-20 -1 -33.5 12.5z" />
    <glyph glyph-name="question" unicode="&#xe60b;" 
d="M872 741q-72 73 -165 111.5t-195 38.5t-195 -38.5t-165 -111t-110.5 -165t-38.5 -194.5t38.5 -195t110.5 -165t165 -110.5t195 -38.5t194.5 38.5t165 110.5t111 165t38.5 195t-38.5 194.5t-110.5 164.5v0zM834 60q-65 -65 -148 -99t-174 -34t-174.5 34.5t-147.5 98.5
t-98.5 147.5t-34.5 174.5t34.5 174t99 147.5t147.5 99t174 34.5t174 -34.5t147.5 -99t99 -147.5t34.5 -174t-34.5 -174.5t-98.5 -147.5v0zM652 631q-50 45 -132 45q-92 0 -145.5 -54t-53.5 -148v0q1 -15 11.5 -25t25.5 -10t25.5 10t11.5 25v0v2v0v0q1 139 122 139
q47 0 77 -27t30 -70q0 -49 -56 -100l-28 -25q-41 -37 -52.5 -64t-11.5 -87v0v-3q0 -15 10 -25t24 -10t24 9.5t11 22.5v0v13q0 62 59 110q99 81 99 155q0 72 -51 117v0zM512 166q-19 0 -33 -14t-14 -33t14 -32.5t33 -13.5t32.5 13.5t13.5 32.5t-13.5 33t-32.5 14v0z" />
    <glyph glyph-name="jiaoyu2" unicode="&#xe604;" 
d="M512 882q-101 0 -193.5 -39.5t-159 -106.5t-106 -159t-39.5 -193t39.5 -193.5t106 -159t159 -106t193.5 -39.5t193.5 39.5t159 106t106 159t39.5 193.5t-39.5 193t-106 159t-159 106.5t-193.5 39.5v0zM512 -64q-91 0 -174 35.5t-143 95.5t-95.5 143t-35.5 174t35.5 174
t95.5 143t143 95.5t174 35.5t174 -35.5t143 -95.5t95.5 -143t35.5 -174t-35.5 -174t-95.5 -143t-143 -95.5t-174 -35.5v0zM845 482v-120l25 -26l-52 -55l-54 54l37 33v95q-222 -91 -240 -99q-46 -21 -93 -3q-216 81 -278 111q-41 20 -41.5 33.5t42.5 30.5q40 15 139 52
t129 48q25 10 36 13.5t27.5 3t33.5 -9.5q31 -13 139.5 -55t146.5 -58q18 -8 26.5 -14.5t7 -11.5t-5 -8t-13 -7.5t-12.5 -6.5v0zM569 316q18 8 66.5 30.5t76.5 34.5v-190l-8.5 -8.5t-24.5 -18.5t-40.5 -23t-55 -18t-68.5 -8q-38 0 -73.5 7.5t-59 18.5t-41.5 22.5t-26 19
t-8 8.5v177q20 -8 148 -52q68 -24 114 0v0zM569 316z" />
    <glyph glyph-name="oGDwRZJ01" unicode="&#xe633;" horiz-adv-x="1025" 
d="M7 817q35 -60 69 -121q9 -16 17 -29q5 -7 19 -32q7 -11 25 -43t32.5 -57t18.5 -32q2 -4 12 -20q4 -8 32 -56q28 -47 28 -48t20 -35.5t24 -41.5q6 -8 22 -36q19 -33 21 -36q4 -6 11 -19q29 -52 61 -107q35 -58 53 -90q9 -16 20 -34q10 -19 13 -25q6 -11 8 -11t8 11
q10 19 15 28q1 1 11 18.5t15 27.5q4 7 50 85q39 66 56 97q1 3 3.5 7t4.5 7.5t2 4.5q1 1 4 6t8.5 14.5t9.5 15.5q16 28 21 36q5 9 24.5 42.5t19.5 34.5t14 23.5t14 24t16 28.5q17 27 19 31q3 6 7 12q1 2 36 63q23 42 50 86q17 28 19 34q2 4 10 17q4 6 34 60q29 49 35 59l6 11
h-395l-17 -30q-19 -34 -81 -139q-8 -14 -14 -27q-3 -9 -5.5 -9t-5.5 9q-6 13 -14 27q-62 105 -81 139l-17 30h-395zM250 751q44 -78 82 -142q11 -19 52 -89.5t60 -104.5q67 -115 68 -116q1 -2 3 1q2 6 65 113q61 105 119 205q49 84 64 111q10 18 30 52l22 37l96 1
q97 0 97 -3q0 -2 -27 -47q-15 -26 -69 -120q-47 -81 -66 -113q-27 -47 -61 -106q-8 -13 -22.5 -38t-25 -43.5t-16.5 -29.5q-35 -59 -51 -87q-35 -60 -36 -63q-18 -30 -55 -94q-49 -85 -54 -93q-10 -18 -13 -18q-1 0 -30.5 49.5t-49.5 86.5q-9 16 -11 19q-6 8 -10 16
q-3 6 -38 66q-51 88 -58 99q-5 9 -25.5 44.5t-29.5 51.5q-6 10 -28 47.5t-31 53.5q-8 14 -21.5 37.5t-15.5 26.5q-48 83 -51 88q-5 9 -15.5 27.5t-12.5 21.5q-8 15 -19 32q-9 15 -17 29q-10 21 -24 42q-7 12 -7 15t92 2.5t92 3.5q0 7 13 -13q12 -18 35 -58zM402 799
q12 -19 12 -20q0 -3 13 -24q12 -20 15 -26t11 -19q6 -10 29 -50q9 -17 14.5 -25.5t10 -13t7 -4t5.5 4.5q5 4 39 62q40 70 54 94l22 38l86 1q86 0 86 -2q0 -3 -10 -19q-10 -17 -10 -18q0 -2 -15.5 -25.5t-15.5 -25.5t-21.5 -39t-25.5 -40q-4 -5 -4 -8t-23 -42
q-67 -115 -94 -163q-12 -20 -22 -37q-13 -21 -14 -24q-4 -9 -20.5 -35.5t-18.5 -26.5q-3 0 -8 12q-5 8 -23 40q-19 29 -30 51q-12 21 -14 24q-3 2 -27 45t-24 46q0 4 -3 5t-46 76q-3 6 -50 85q-68 117 -68 120q0 1 85 1h86z" />
    <glyph glyph-name="daimapeizhi" unicode="&#xe732;" 
d="M258 365q-10 0 -17 7q-6 8 -5.5 17t7.5 15l148 130q7 6 16.5 5.5t15.5 -7.5t5.5 -16.5t-7.5 -15.5l-148 -130q-6 -5 -15 -5zM406 226q-9 0 -15 6l-148 136q-7 7 -7.5 16.5t5.5 15.5q7 7 16.5 7.5t15.5 -5.5l148 -136q7 -7 7.5 -16.5t-5.5 -16.5q-7 -7 -17 -7zM486 157
q-2 0 -3 1q-10 1 -15.5 8.5t-3.5 17.5l63 409q1 10 9 15.5t17 4t14.5 -9t4.5 -17.5l-63 -409q-1 -9 -7.5 -14.5t-15.5 -5.5zM785 357q-8 0 -14 6l-148 130q-8 6 -8.5 15.5t6 16.5t16 7.5t16.5 -5.5l148 -130q7 -6 7.5 -15.5t-5.5 -16.5q-8 -8 -18 -8zM637 219q-9 0 -16 7
t-6.5 16.5t7.5 16.5l148 136q7 6 16.5 5.5t15.5 -7.5q7 -7 6.5 -16.5t-7.5 -15.5l-148 -136q-6 -6 -16 -6zM510.5 -123q-103.5 0 -197.5 40t-162 108.5t-108.5 162.5t-40.5 197t40.5 197t108.5 162.5t162 108.5t197.5 40t197.5 -40t162 -108t108.5 -162.5t40.5 -197.5
t-40.5 -197.5t-108.5 -162.5t-162 -108t-197.5 -40zM510.5 848q-94.5 0 -180 -36.5t-147.5 -98.5t-98.5 -148t-36.5 -180t36.5 -180t98.5 -147.5t148 -98.5t180 -37t179.5 37t147.5 99t98.5 147.5t36.5 179.5t-36.5 179.5t-98.5 147.5t-147.5 99t-180 37z" />
    <glyph glyph-name="xingming1" unicode="&#xe610;" 
d="M512 -128q-139 0 -257 68.5t-186.5 186.5t-68.5 257t68.5 257t186.5 186.5t257 68.5t257 -68.5t186.5 -186.5t68.5 -257t-68.5 -257t-186.5 -186.5t-257 -68.5zM512 870q-99 0 -189 -38.5t-155 -103.5t-103.5 -155t-38.5 -189t38.5 -189t103.5 -155t155 -103.5t189 -38.5
t189 38.5t155 103.5t103.5 155t38.5 189t-38.5 189t-103.5 155t-155 103.5t-189 38.5zM512 -128q-139 0 -257 68.5t-186.5 186.5t-68.5 257t68.5 257t186.5 186.5t257 68.5t257 -68.5t186.5 -186.5t68.5 -257t-68.5 -257t-186.5 -186.5t-257 -68.5zM512 870
q-99 0 -189 -38.5t-155 -103.5t-103.5 -155t-38.5 -189t38.5 -189t103.5 -155t155 -103.5t189 -38.5t189 38.5t155 103.5t103.5 155t38.5 189t-38.5 189t-103.5 155t-155 103.5t-189 38.5zM596 374q31 19 52.5 58t21.5 75v1q0 65 -46.5 111.5t-111.5 46.5t-111.5 -46.5
t-46.5 -111.5v-1q0 -36 21.5 -75t52.5 -58q-76 -28 -124 -97t-48 -155v-1q0 -8 6 -14t14 -6t13.5 6t5.5 14v1q0 94 63.5 160.5t153.5 66.5t153.5 -66.5t63.5 -160.5v-1q0 -8 5.5 -14t13.5 -6t14 6t6 14v1q0 86 -48 155t-124 97zM512 389q-49 0 -83.5 34.5t-34.5 83.5v0
q0 50 34.5 84.5t83.5 34.5t83.5 -34.5t34.5 -84t-34.5 -84t-83.5 -34.5z" />
    <glyph glyph-name="biezhen" unicode="&#xe685;" 
d="M472 777l-379 -399q-72 -75 -71.5 -181t74.5 -181l3 -4q74 -75 178.5 -75.5t178.5 73.5l500 498q59 60 60 144t-57 145l-18 -17l-18 -18l4 -4l18 17l19 18q-59 61 -141 60t-139 -62l-475 -509q-28 -31 -26.5 -72.5t32.5 -70.5l11 -11q30 -28 72 -27t71 32l368 395
q8 8 7.5 18.5t-8 18t-18 7t-18.5 -8.5l-368 -395q-14 -15 -35.5 -16t-36.5 13l-11 11q-16 14 -16.5 35t13.5 37l474 508q43 46 103.5 46.5t103.5 -44.5q11 -12 25 -7.5t17.5 17t-6.5 25.5l-4 4q-11 12 -25 7.5t-17.5 -17t6.5 -25.5q43 -45 42 -109t-45 -108l-501 -499
q-59 -59 -142.5 -58.5t-141.5 60.5l-4 4q-59 60 -59.5 145.5t57.5 146.5l379 398q7 8 7 18t-8 17.5t-18 7t-17 -7.5z" />
    <glyph glyph-name="dot2" unicode="&#xe616;" 
d="M512 512q53 0 90.5 -37.5t37.5 -90.5t-37.5 -90.5t-90.5 -37.5v0q-53 0 -90.5 37.5t-37.5 90.5t37.5 90.5t90.5 37.5v0z" />
    <glyph glyph-name="gongzuojingli1" unicode="&#xe61b;" 
d="M512 -128q-139 0 -257 68.5t-186.5 186.5t-68.5 257t68.5 257t186.5 186.5t257 68.5t257 -68.5t186.5 -186.5t68.5 -257t-68.5 -257t-186.5 -186.5t-257 -68.5zM512 864q-98 0 -186.5 -38t-153 -102.5t-102.5 -153t-38 -186.5t38 -186.5t102.5 -153t153 -102.5t186.5 -38
t186.5 38t153 102.5t102.5 153t38 186.5t-38 186.5t-102.5 153t-153 102.5t-186.5 38zM736 128h-448q-27 0 -45.5 18.5t-18.5 45.5v128h192q0 -27 18.5 -45.5t45.5 -18.5h64q27 0 45.5 18.5t18.5 45.5h192v-128q0 -27 -18.5 -45.5t-45.5 -18.5zM544 448h-64
q-27 0 -45.5 -18.5t-18.5 -45.5h-192v160q0 27 18.5 45.5t45.5 18.5h64v32q0 27 18.5 45.5t45.5 18.5h192q27 0 45.5 -18.5t18.5 -45.5v-32h64q27 0 45.5 -18.5t18.5 -45.5v-160h-192q0 27 -18.5 45.5t-45.5 18.5zM608 640h-192v-32h192v32z" />
    <glyph glyph-name="youjian2" unicode="&#xe62d;" 
d="M785 536v0v6q-1 6 -3 8q-2 3 -6.5 4.5t-8.5 0.5h-4h-496q-14 2 -18 -5q-3 -2 -4 -8v-5v-1v-3v-186v0v-128q-1 -15 4 -19q3 -3 7.5 -4t6.5 -1l3 1h498q9 -2 18 4q2 2 2.5 6.5t0.5 8.5v4v128v0v186v3zM742 533l-209 -217q-7 -8 -18 -8v0v0q-10 0 -18 8l-208 217h453z
M267 524l140 -146v0l-140 -146v292zM560 218h-276l138 144l60 -62q13 -14 33 -14v0v0q20 0 33 14l60 62l138 -144h-186zM764 232l-141 146v0l141 146v-292zM515 878q-102 0 -195 -40t-160.5 -107t-107 -160t-39.5 -195.5t39.5 -195.5t107 -160t160.5 -107t195 -40t195 40
t160.5 107t107.5 160t40 195.5t-40 195.5t-107.5 160t-160.5 107t-195 40zM515 -102q-97 0 -185.5 37.5t-152.5 101.5t-102 152.5t-38 186t38 186t102 152.5t152.5 101.5t185.5 37.5t185.5 -37.5t152.5 -101.5t102 -152.5t38 -186t-38 -186t-102 -152.5t-152.5 -101.5
t-185.5 -37.5v0z" />
    <glyph glyph-name="github2" unicode="&#xe7dd;" 
d="M978 571q-39 91 -109 161t-161 109q-94 40 -197.5 40t-197.5 -40q-91 -39 -161 -109t-109 -161q-40 -94 -40 -198q0 -166 98 -299q19 -26 51 -58.5t59 -51.5q64 -47 139 -72l2 -1h2q27 -5 46 10q17 15 17 38v22q-1 42 -1 68v32l-31 -7q-29 -6 -63 -3q-57 5 -69 41
q30 -30 72 -34q38 -3 77 15l13 6l2 13q5 34 23 50l42 38l-57 6q-32 4 -57.5 10.5t-53 21t-45 36.5t-29 59t-11.5 85q0 65 43 113l10 11l-6 15q-16 41 0 94q19 -2 51 -18q27 -13 49 -28l10 -7l11 3q55 16 113.5 16t113.5 -16l11 -3l10 7q22 14 48 28q32 16 52 18
q16 -53 0 -94l-6 -15l10 -11q43 -48 43 -113q0 -113 -60 -164q-46 -38 -137 -48l-59 -6l45 -39q24 -20 24 -69q0 -44 -1 -106v-27q0 -23 17 -38q14 -11 34 -11q6 0 12 1h2l2 1q75 25 139 72q26 19 58.5 51.5t51.5 58.5q98 133 98 299q0 104 -40 198zM657 -59h-2v25
q1 62 1 106q0 39 -14 70q76 14 122 53q38 32 58 80q21 52 21 123q0 77 -46 135q5 18 6 37q3 47 -16 95l-4 11l-12 4q-35 11 -100 -21q-22 -11 -44 -25q-57 14 -116.5 14t-116.5 -14q-22 14 -44 25q-65 32 -100 21l-12 -4l-4 -11q-19 -48 -16 -95q1 -19 6 -37
q-46 -58 -46 -135q0 -71 21 -122q19 -49 57 -81q47 -39 122 -54q-5 -12 -9 -26q-63 -22 -95 34v0q-9 16 -22 28t-24 18.5t-23 10.5t-17 4.5t-8 0.5h-1h-1q-14 1 -24 -3q-17 -5 -22 -21q-6 -20 15 -41q6 -6 13 -11l2 -1l2 -1q10 -5 21.5 -22t18.5 -34q13 -38 49 -58
q27 -16 65 -19q22 -2 47 0q0 -15 1 -40v-19h-2q-139 47 -224.5 166t-85.5 266q0 93 36.5 177.5t97.5 145.5t145.5 97.5t177 36.5t177 -36.5t145.5 -97.5t97.5 -145.5t36.5 -177.5q0 -147 -85.5 -266t-224.5 -166z" />
    <glyph glyph-name="word" unicode="&#xe644;" horiz-adv-x="1025" 
d="M513 896q-104 0 -199 -40.5t-163.5 -109t-109 -163t-40.5 -198.5t40.5 -199t109 -163.5t163.5 -109t199 -40.5t198.5 40.5t163 109t109 163.5t40.5 199t-40.5 198.5t-109 163t-163 109t-198.5 40.5zM803 179q0 -12 -8.5 -19.5t-19.5 -7.5q-9 0 -29 7t-25 13l-199 231
l-200 -231q-5 -6 -25 -13t-29 -7q-11 0 -19.5 8t-8.5 19v381q0 11 8.5 19t19.5 8q12 0 20.5 -8.5t8.5 -18.5v-333l199 231q9 11 26 8q14 3 25 -8l200 -231v333q0 11 8 19t20 8q11 0 19.5 -8.5t8.5 -18.5v-381z" />
    <glyph glyph-name="pdf6" unicode="&#xe645;" 
d="M495 686q-10 -65 7 -139q33 84 -7 139zM424 263q107 35 164 46q-64 64 -89 110q-34 -86 -75 -156zM335 202q-67 -67 -88 -106q18 13 35.5 32.5t27 33.5t25.5 40zM712 291q73 -37 117 -25q-10 13 -26 19t-26.5 7t-35.5 0t-29 -1zM511 896v0q-104 0 -198.5 -40.5t-163 -109
t-109 -163t-40.5 -198.5v0v0q0 -104 40.5 -198.5t109 -163t163 -109t198.5 -40.5v0v0q104 0 199 40.5t163 109t108.5 163t40.5 198.5v0v0q0 104 -40.5 198.5t-108.5 163t-163 109t-198 40.5h-1zM808 227q-22 -1 -48 4t-41 10.5t-46 19t-39 16.5q-79 -7 -227 -50
q-2 -3 -18.5 -31t-22.5 -37t-20.5 -29t-27.5 -33t-29 -23q-15 -9 -34.5 -8.5t-33 14t-6.5 33.5q11 27 35 50.5t45 36.5t55 31q19 9 32 35q71 136 99 206q-2 10 -7 32t-8 34t-6.5 32.5t-5 35.5t-1 33.5t2.5 35.5q3 20 25.5 27t38.5 -2q9 -7 15 -19.5t7 -23.5q0 -53 -15 -153
q1 -7 -0.5 -8t1 -7.5t1.5 -7.5t2 -7.5t3 -7t3.5 -7t3.5 -7t4 -6.5l4 -6q41 -77 106 -117q38 5 59 6.5t53 0t59 -9.5q17 -7 21 -30t-7.5 -43t-31.5 -20z" />
    <glyph glyph-name="menu3" unicode="&#xe60a;" 
d="M512 -128q139 0 257 68.5t186.5 186.5t68.5 257t-68.5 257t-186.5 186.5t-257 68.5t-257 -68.5t-186.5 -186.5t-68.5 -257t68.5 -257t186.5 -186.5t257 -68.5zM512 -75q-93 0 -178.5 36t-147 97.5t-97.5 147t-36 178.5t36 178.5t97.5 147t147 97.5t178.5 36t178.5 -36
t147 -97.5t97.5 -147t36 -178.5t-36 -178.5t-97.5 -147t-147 -97.5t-178.5 -36zM263 567.5q0 16.5 11.5 28t27.5 11.5h420q16 0 27 -11.5t11 -27.5t-11 -27.5t-27 -12.5h-420q-17 0 -28 11.5t-11 28zM263 384q0 16 11.5 27.5t27.5 11.5h420q16 0 27 -11.5t11 -27.5
t-11 -27.5t-27 -11.5h-420q-17 0 -28 11.5t-11 27.5zM263 200q0 16 11.5 28t27.5 12h420q16 -1 27 -12.5t11 -27.5t-11 -27.5t-27 -11.5h-420q-17 0 -28 11.5t-11 27.5z" />
    <glyph glyph-name="react" unicode="&#xe770;" 
d="M513 726v1q34 33 68 57q27 19 56 33q14 7 21 9q25 10 51 12h12h9q10 -1 19 -4q10 -4 15 -7l5 -2.5t4 -2.5q9 -7 14 -12q1 -2 4.5 -6.5t4.5 -6.5q10 -15 16 -32q0 -2 1 -5.5t2 -5.5q0 -2 1 -6.5t2 -6.5q1 -3 2 -8.5t1 -8.5l2 -22q1 -9 1 -28q0 -18 -2 -37q-4 -28 -7 -44
q-1 -5 -2.5 -14t-2.5 -13l-4 -16l9 -2q20 -6 45 -16q20 -7 35 -15q21 -10 30 -16q20 -11 31 -20q13 -10 25 -21q8 -8 16 -18q6 -8 10 -16q7 -12 11 -26q2 -8 2 -17q0 -7 -1 -11q-1 -9 -4 -18q-1 -5 -6 -16q-9 -16 -21 -30q-3 -3 -8 -9q-7 -7 -11 -10q-10 -8 -15 -11
q-9 -8 -19 -14q-12 -8 -26 -15l-34 -17q-17 -7 -35 -14q-11 -4 -31 -10l-3 -1q2 -11 3 -16q1 -4 2.5 -11.5t1.5 -11.5q5 -30 7 -46q1 -25 1 -36q0 -26 -4 -51q0 -3 -1 -9t-2 -9l-4 -14q-3 -11 -9 -24q-8 -15 -10 -17q-5 -8 -13 -16t-19 -15q-10 -4 -16 -6q-12 -3 -27 -4
q-16 -1 -36 4q-11 2 -22 6q-9 3 -24 10q-12 5 -27 14q-17 9 -30 19q-37 25 -71 58l-5 -4q-10 -10 -31 -28q-21 -17 -33 -25q-14 -10 -31 -20q-13 -7 -32 -15q-15 -6 -23 -9q-15 -5 -22 -6q-19 -4 -36 -3q-15 0 -28 4q-9 2 -17 7q-3 2 -10 7l-6 6q-3 2 -5 4q-13 15 -21 33
l-2 6q0 1 -1 3.5t-1 3.5q-1 1 -2 4.5t-2 5.5q0 2 -1 6.5t-2 6.5q-2 12 -3 17l-2 21q-1 10 -1 28.5t2 35.5q2 15 7 46l7 36l-12 4q-23 7 -45 16q-16 6 -30 14q-18 9 -27 14q-31 18 -58 43q3 13 -8 26q-7 9 -12 18q-4 7 -8 18q0 2 -1 4.5t-1 4.5q-3 10 -3 20q0 4 1 9q0 6 1 9
l2 7q6 19 20 37q7 10 16 18l11 10q10 7 15 11q8 6 19 14q15 9 26 14q13 7 35 16q27 12 65 23l5 1q-7 27 -9 40q-5 28 -7 44q-1 12 -2 35v28q0 11 2 21q1 16 5 31q1 5 4 10l2 7l3 6q9 20 20 32q4 4 7 6l2.5 2.5l2.5 2.5l9 6q11 5 16 6q10 3 20 4q1 0 2.5 0.5t2.5 0.5h10l7 -1
q15 -2 31 -6q15 -4 20 -6q3 -1 20 -9t29 -16q21 -13 31 -20q17 -12 35 -27q4 -4 13 -11.5t13 -11.5l6 -6zM769 202q-65 -15 -131 -21q-1 0 -3.5 -0.5t-3.5 -0.5q-17 -25 -38 -51q-21 -28 -42 -51l-6 -7q32 -31 61 -51q9 -7 26 -18q3 -2 25 -14q14 -6 22 -9q11 -3 17 -5
q11 -2 16 -2q4 -1 13 -1q10 0 19 4l5 3q6 3 10 8q3 4 10 15q1 0 2 2t1 3l3 7q3 7 3 11l4 12q0 3 1 9t2 9l2 18q1 24 -1 42q-1 15 -4 41q-5 25 -7 34l-2 11zM257 200l-3 -19q-7 -32 -10 -64q-1 -15 -1 -43q0 -3 0.5 -9.5t0.5 -9.5t1 -8.5t2 -8.5q0 -1 1 -5.5t1 -6.5
q1 -1 2 -4.5t1 -4.5q1 -2 2 -4.5t2 -3.5l3 -6l2 -4l2 -3l2 -2q7 -9 14 -13l3 -2q7 -3 9 -3q9 -2 13 -2q9 0 13 1q3 0 8 1t7 2q7 1 18 5q25 9 48 22q9 6 28 19q20 14 29 22q6 4 16 14q2 2 7 6t7 6l2 2l-11 12q-14 17 -43 52q-17 22 -33 45h-4q-30 3 -59 7q-18 2 -54 8l-21 5z
M574 177q-31 -2 -63 -2q-26 0 -52 1h-6l13 -16q22 -28 39 -46q7 -8 10 -11l5 5q17 19 40 47q11 15 16 22h-2zM606 545q-45 4 -90 4h-4h-29q-21 0 -63 -3q-17 -25 -35 -54q-18 -30 -37 -65q-7 -13 -21 -42l24 -45q12 -22 38 -66l32 -50l39 -2h55q42 0 93 3q4 5 32 48
q37 62 62 114q-11 22 -20 39q-12 22 -28 50q-24 40 -43 69l-3 4zM303 332q-2 -5 -7 -17t-7 -18q-11 -27 -19 -55q11 -3 33 -6q20 -4 49 -8q4 0 13 -1q-13 21 -21 33q-20 35 -40 72h-1zM723 334q-3 -7 -9.5 -19.5t-9.5 -17.5q-15 -27 -24 -42q-2 -4 -17 -28l10 1q18 3 47 7
q21 4 39 8q-8 27 -18 52q-3 8 -16 38zM228 513l-14 -4q-38 -12 -73 -29q-14 -7 -28 -15q-16 -10 -23 -16q-8 -5 -16 -14q-5 -4 -12 -12q-6 -7 -8 -11q-4 -7 -5 -10q-3 -7 -3 -15v-4q0 -6 3 -16l2 -3l2 -3l2 -5l4 -5l5 -6q1 -2 3.5 -4.5l3.5 -3.5l4 -4t5 -4q0 -1 4 -4.5
t6 -4.5q11 -8 16 -12q13 -9 20 -12q9 -6 26 -14q18 -9 34 -15q22 -8 29 -10l15 -5l13 40q16 41 27 66l11 25l-11 24q-12 28 -27 67q-8 22 -12 38zM798 513q-5 -17 -11 -33q-11 -35 -27 -68l-12 -27l16 -34q13 -28 25 -63q7 -16 12 -33l7 2q16 5 26 9q26 8 50 21q12 5 29 16
q8 4 23 16q8 5 16 13q5 4 13 14q3 3 9 10q3 7 5 10q4 7 4 15v5q0 5 -2 10q-2 7 -6 12l-2 4l-3 5l-2.5 2.5l-2.5 2.5t-3 3.5t-3 4t-4 4t-4 3.5q-8 6 -13 10q-1 1 -14 10q-8 6 -20 12q-12 7 -26 13q-3 1 -32 13q-14 6 -45 15zM512 476q38 0 65 -26.5t27 -64.5t-27 -65t-65 -27
t-64.5 27t-26.5 65t26.5 64.5t64.5 26.5zM662 540q16 -25 32 -54q16 -28 28 -51q9 20 16 39q11 32 17 49q-47 11 -94 17h1zM363 540q-38 -5 -75 -12q-12 -3 -18 -4q11 -34 18 -53q5 -13 15 -36q21 40 36 65q5 7 13 20t12 19zM767 565l2 9l6 33q3 15 5 45q1 29 1 43l-0.5 8
t-1.5 12q0 3 -1 8.5t-2 8.5q0 2 -1 6t-2 6q0 2 -1 5t-2 5l-2 7l-2 5q-2 4 -3 5l-2 4l-1 1l-1 1q-7 10 -18 15q-7 3 -15 4h-4h-1h-5q-4 0 -11 -2q-6 -1 -14 -3l-18 -6q-1 0 -19 -9q-5 -2 -13.5 -7t-11.5 -6q-15 -10 -25 -17q-28 -21 -59 -50l9 -9q23 -24 46 -55q7 -8 32 -42
l26 -3q19 -2 58 -8q19 -3 53 -11zM482 695l-3 3q-26 24 -55 46q-19 13 -28 18t-26 14q-9 4 -19 8q-9 4 -18 6q-5 2 -14 3q-7 1 -12 2h-4h-1h-4q-13 -1 -24 -7q-6 -4 -10 -9q-5 -7 -9 -15l-3 -5q-1 -2 -2 -7q-3 -7 -3.5 -9l-1.5 -6t-1 -6t-1 -7.5t-2 -8.5q-1 -12 -1 -19
q-1 -14 1 -42q1 -26 9 -65q1 -4 2.5 -11t2.5 -10l20 4q29 6 47 9q16 3 52 7l16 2q11 14 32 42q25 32 45 53l11 13zM513 664l-11 -12q-20 -23 -39 -47l-11 -14q27 2 54 2h8q29 0 59 -2l-10 13q-21 27 -43 51l-8 9h1z" />
    <glyph glyph-name="dot-small" unicode="&#xe637;" 
d="M533 363zM469 362.5q0 -26.5 19 -45t45.5 -18.5t45 18.5t18.5 45t-18.5 45.5t-45 19t-45.5 -19t-19 -45.5z" />
    <glyph glyph-name="Vuejs_Logo" unicode="&#xe601;" 
d="M628 736l-94 -163l-94 163h-312l406 -704l407 704h-313zM628 736l-94 -163l-94 163h-150l244 -422l244 422h-150z" />
  </font>
</defs>
</svg>
